HIERARCHY
ROOT Hips
{
	OFFSET 0.00000 0.00000 0.00000
	CHANNELS 6 Xposition Yposition Zposition Zrotation Yrotation Xrotation 
	JOINT LHipJoint
	{
		OFFSET 0 0 0
		CHANNELS 3 Zrotation Yrotation Xrotation
		JOINT LeftUpLeg
		{
			OFFSET 1.48831 -1.59570 0.95625
			CHANNELS 3 Zrotation Yrotation Xrotation
			JOINT LeftLeg
			{
				OFFSET 2.20856 -6.06797 0.00000
				CHANNELS 3 Zrotation Yrotation Xrotation
				JOINT LeftFoot
				{
					OFFSET 2.62924 -7.22379 0.00000
					CHANNELS 3 Zrotation Yrotation Xrotation
					JOINT LeftToeBase
					{
						OFFSET 0.16802 -0.46163 2.41673
						CHANNELS 3 Zrotation Yrotation Xrotation
						End Site
						{
							OFFSET 0.00000 -0.00000 1.23760
						}
					}
				}
			}
		}
	}
	JOINT RHipJoint
	{
		OFFSET 0 0 0
		CHANNELS 3 Zrotation Yrotation Xrotation
		JOINT RightUpLeg
		{
			OFFSET -1.56796 -1.59570 0.95625
			CHANNELS 3 Zrotation Yrotation Xrotation
			JOINT RightLeg
			{
				OFFSET -2.29239 -6.29829 0.00000
				CHANNELS 3 Zrotation Yrotation Xrotation
				JOINT RightFoot
				{
					OFFSET -2.66963 -7.33475 0.00000
					CHANNELS 3 Zrotation Yrotation Xrotation
					JOINT RightToeBase
					{
						OFFSET -0.18185 -0.49964 2.34359
						CHANNELS 3 Zrotation Yrotation Xrotation
						End Site
						{
							OFFSET -0.00000 -0.00000 1.20477
						}
					}
				}
			}
		}
	}
	JOINT LowerBack
	{
		OFFSET 0 0 0
		CHANNELS 3 Zrotation Yrotation Xrotation
		JOINT Spine
		{
			OFFSET 0.03505 2.15832 -0.34324
			CHANNELS 3 Zrotation Yrotation Xrotation
			JOINT Spine1
			{
				OFFSET -0.01089 2.17963 0.04689
				CHANNELS 3 Zrotation Yrotation Xrotation
				JOINT Neck
				{
					OFFSET 0 0 0
					CHANNELS 3 Zrotation Yrotation Xrotation
					JOINT Neck1
					{
						OFFSET 0.04686 1.69404 0.22159
						CHANNELS 3 Zrotation Yrotation Xrotation
						JOINT Head
						{
							OFFSET 0.00265 1.69305 -0.01513
							CHANNELS 3 Zrotation Yrotation Xrotation
							End Site
							{
								OFFSET -0.00415 1.80215 -0.03034
							}
						}
					}
				}
				JOINT LeftShoulder
				{
					OFFSET 0 0 0
					CHANNELS 3 Zrotation Yrotation Xrotation
					JOINT LeftArm
					{
						OFFSET 3.67184 1.11724 -0.19002
						CHANNELS 3 Zrotation Yrotation Xrotation
						JOINT LeftForeArm
						{
							OFFSET 5.17714 -0.00000 -0.00000
							CHANNELS 3 Zrotation Yrotation Xrotation
							JOINT LeftHand
							{
								OFFSET 3.43679 -0.00000 -0.00000
								CHANNELS 3 Zrotation Yrotation Xrotation
								JOINT LeftFingerBase
								{
									OFFSET 0 0 0
									CHANNELS 3 Zrotation Yrotation Xrotation
									JOINT LeftHandIndex1
									{
										OFFSET 0.57312 -0.00000 -0.00000
										CHANNELS 3 Zrotation Yrotation Xrotation
										End Site
										{
											OFFSET 0.46206 -0.00000 -0.00000
										}
									}
								}
								JOINT LThumb
								{
									OFFSET 0 0 0
									CHANNELS 3 Zrotation Yrotation Xrotation
									End Site
									{
										OFFSET 0.46912 -0.00000 0.46912
									}
								}
							}
						}
					}
				}
				JOINT RightShoulder
				{
					OFFSET 0 0 0
					CHANNELS 3 Zrotation Yrotation Xrotation
					JOINT RightArm
					{
						OFFSET -3.59596 0.95831 -0.26050
						CHANNELS 3 Zrotation Yrotation Xrotation
						JOINT RightForeArm
						{
							OFFSET -5.23908 -0.00000 -0.00000
							CHANNELS 3 Zrotation Yrotation Xrotation
							JOINT RightHand
							{
								OFFSET -3.46485 -0.00000 -0.00000
								CHANNELS 3 Zrotation Yrotation Xrotation
								JOINT RightFingerBase
								{
									OFFSET 0 0 0
									CHANNELS 3 Zrotation Yrotation Xrotation
									JOINT RightHandIndex1
									{
										OFFSET -0.60875 -0.00000 -0.00000
										CHANNELS 3 Zrotation Yrotation Xrotation
										End Site
										{
											OFFSET -0.49079 -0.00000 -0.00000
										}
									}
								}
								JOINT RThumb
								{
									OFFSET 0 0 0
									CHANNELS 3 Zrotation Yrotation Xrotation
									End Site
									{
										OFFSET -0.49829 -0.00000 0.49829
									}
								}
							}
						}
					}
				}
			}
		}
	}
}
MOTION
Frames: 13
Frame Time: .0083333
7.8381 15.1802 -19.8704 -183.5090 -52.1150 198.7190 0.0000 0.0000 0.0000 -19.5612 -4.0659 -54.4153 8.8849 16.7331 55.6914 1.0282 1.9502 -19.9512 0.0086 -0.5987 -1.6451 0.0000 0.0000 0.0000 11.8637 10.2699 -54.9824 -11.7377 -18.2775 65.1548 -1.8466 -7.3209 -29.1748 -0.1733 2.6816 -7.3936 3.2006 0.6258 36.6868 -0.5433 -2.2980 18.6814 -1.6191 -2.3318 2.2335 3.1781 -2.4113 2.4488 3.8308 -3.6866 -28.9538 1.2508 -3.3354 -9.5088 0.0000 0.0000 0.0000 -63.2571 -23.0577 30.0566 46.9903 -51.7071 -23.7908 -0.0000 0.0000 -30.8784 19.3091 10.1274 3.5255 -7.1250 0.0000 -0.0000 -6.8043 40.6047 0.7413 0.0000 0.0000 0.0000 -8.3071 40.2373 -30.8581 -83.6359 59.8464 -54.4914 0.0000 -0.0000 -58.2489 -41.9617 -8.1772 7.2884 7.1250 -0.0000 -0.0000 -13.3410 -40.5538 -1.4928
7.8456 15.1832 -19.8862 -183.6050 -52.1191 198.8090 0.0000 0.0000 0.0000 -19.5652 -4.0550 -54.3817 8.8680 16.7221 55.6327 1.0256 1.9532 -19.9288 0.0086 -0.5984 -1.6443 0.0000 0.0000 0.0000 11.8763 10.2674 -54.9790 -11.7389 -18.2781 65.1588 -1.8582 -7.2746 -29.2222 -0.1660 2.6250 -7.2364 3.2064 0.6077 36.7026 -0.5393 -2.3073 18.6471 -1.6128 -2.3337 2.1901 3.1828 -2.3708 2.4828 3.8255 -3.6550 -29.2814 1.2595 -3.3457 -9.6352 -0.0000 -0.0000 0.0000 -63.2547 -23.0106 30.0577 47.0313 -51.7257 -23.8230 -0.0000 0.0000 -30.8579 19.1822 10.1223 3.4988 -7.1250 0.0000 -0.0000 -6.9143 40.5883 0.7563 -0.0000 -0.0000 0.0000 -8.3211 40.1324 -30.5676 -84.1733 59.8713 -54.9561 0.0000 -0.0000 -58.2589 -41.9426 -8.0958 7.2123 7.1250 -0.0000 -0.0000 -13.3117 -40.4463 -1.5254
7.8530 15.1864 -19.9016 -183.7020 -52.1221 198.8950 0.0000 0.0000 0.0000 -19.5735 -4.0396 -54.3433 8.8503 16.7104 55.5711 1.0224 1.9564 -19.9003 0.0086 -0.5987 -1.6451 0.0000 0.0000 0.0000 11.8863 10.2728 -54.9647 -11.7388 -18.2781 65.1586 -1.8706 -7.2377 -29.2808 -0.1585 2.5649 -7.0696 3.2022 0.5872 36.7228 -0.5296 -2.3239 18.6155 -1.5932 -2.3410 2.1482 3.1559 -2.3277 2.5149 3.8278 -3.6215 -29.5994 1.2759 -3.3522 -9.7575 0.0000 -0.0000 0.0000 -63.2648 -22.9623 30.0291 47.0737 -51.7449 -23.8563 -0.0000 0.0000 -30.8253 19.0868 10.1046 3.4741 -7.1250 0.0000 -0.0000 -6.9947 40.5615 0.7698 0.0000 -0.0000 0.0000 -8.3673 40.0444 -30.2873 -84.6980 59.8935 -55.4100 0.0000 -0.0000 -58.2751 -41.9207 -7.9999 7.1228 7.1250 -0.0000 -0.0000 -13.2778 -40.3197 -1.5637
7.8604 15.1894 -19.9165 -183.7950 -52.1277 198.9730 0.0000 0.0000 0.0000 -19.5793 -4.0227 -54.3040 8.8330 16.6991 55.5109 1.0187 1.9566 -19.8662 0.0086 -0.5999 -1.6486 0.0000 0.0000 0.0000 11.8991 10.2834 -54.9411 -11.7373 -18.2774 65.1536 -1.8827 -7.2168 -29.3471 -0.1517 2.5095 -6.9160 3.1864 0.5624 36.7400 -0.5103 -2.3513 18.5887 -1.5546 -2.3557 2.1128 3.0964 -2.2777 2.5417 3.8283 -3.5819 -29.8956 1.2958 -3.3507 -9.8704 -0.0000 0.0000 0.0000 -63.2954 -22.9107 29.9607 47.1147 -51.7634 -23.8884 -0.0000 0.0000 -30.7799 19.0279 10.0734 3.4520 -7.1250 0.0000 -0.0000 -7.0409 40.5237 0.7815 -0.0000 0.0000 0.0000 -8.4673 39.9868 -30.0333 -85.1819 59.9121 -55.8287 0.0000 -0.0000 -58.3172 -41.9063 -7.9029 7.0344 7.1250 -0.0000 -0.0000 -13.2505 -40.1926 -1.6027
7.8679 15.1921 -19.9311 -183.8810 -52.1381 199.0410 0.0000 0.0000 0.0000 -19.5794 -4.0076 -54.2630 8.8168 16.6883 55.4542 1.0149 1.9506 -19.8281 0.0086 -0.5971 -1.6408 0.0000 0.0000 0.0000 11.9163 10.2960 -54.9087 -11.7346 -18.2762 65.1450 -1.8952 -7.2050 -29.4213 -0.1450 2.4536 -6.7609 3.1628 0.5332 36.7572 -0.4819 -2.3877 18.5656 -1.5000 -2.3765 2.0816 3.0112 -2.2215 2.5647 3.8236 -3.5365 -30.1662 1.3168 -3.3413 -9.9733 0.0000 -0.0000 0.0000 -63.3445 -22.8580 29.8622 47.1499 -51.7793 -23.9161 -0.0000 0.0000 -30.7377 19.0040 10.0386 3.4356 -7.1250 0.0000 -0.0000 -7.0560 40.4853 0.7899 0.0000 -0.0000 0.0000 -8.6082 39.9568 -29.7996 -85.6282 59.9277 -56.2148 0.0000 -0.0000 -58.3895 -41.8893 -7.8122 6.9509 7.1250 -0.0000 -0.0000 -13.2218 -40.0734 -1.6387
7.8754 15.1948 -19.9452 -183.9560 -52.1573 199.0940 0.0000 0.0000 0.0000 -19.5703 -3.9958 -54.2190 8.8017 16.6784 55.4017 1.0111 1.9380 -19.7875 0.0084 -0.5909 -1.6238 0.0000 0.0000 0.0000 11.9422 10.3057 -54.8663 -11.7309 -18.2745 65.1331 -1.9089 -7.1926 -29.5023 -0.1378 2.3928 -6.5926 3.1448 0.4974 36.7734 -0.4493 -2.4318 18.5465 -1.4418 -2.4014 2.0553 2.9109 -2.1636 2.5818 3.8195 -3.4886 -30.4053 1.3389 -3.3268 -10.0633 -0.0000 0.0000 0.0000 -63.3998 -22.8091 29.7440 47.1750 -51.7906 -23.9359 -0.0000 0.0000 -30.7061 19.0224 10.0100 3.4295 -7.1250 0.0000 -0.0000 -7.0353 40.4570 0.7925 -0.0000 0.0000 0.0000 -8.7741 39.9465 -29.5817 -86.0346 59.9405 -56.5665 0.0000 -0.0000 -58.4849 -41.8836 -7.7447 6.8904 7.1250 -0.0000 -0.0000 -13.2066 -39.9854 -1.6660
7.8829 15.1972 -19.9591 -184.0230 -52.1833 199.1420 0.0000 0.0000 0.0000 -19.5545 -3.9874 -54.1809 8.7878 16.6692 55.3534 1.0069 1.9212 -19.7401 0.0082 -0.5848 -1.6069 0.0000 0.0000 0.0000 11.9724 10.3142 -54.8245 -11.7270 -18.2728 65.1207 -1.9231 -7.1782 -29.5849 -0.1303 2.3271 -6.4106 3.1328 0.4567 36.7812 -0.4179 -2.4811 18.5321 -1.3871 -2.4283 2.0368 2.8100 -2.1077 2.5885 3.8170 -3.4416 -30.6116 1.3603 -3.3105 -10.1395 -0.0000 -0.0000 0.0000 -63.4488 -22.7679 29.6133 47.1915 -51.7980 -23.9488 -0.0000 0.0000 -30.6937 19.0840 9.9793 3.4310 -7.1250 0.0000 -0.0000 -6.9766 40.4302 0.7905 -0.0000 -0.0000 0.0000 -8.9488 39.9462 -29.3735 -86.4111 59.9513 -56.8924 0.0000 -0.0000 -58.5958 -41.8874 -7.6806 6.8351 7.1250 -0.0000 -0.0000 -13.2004 -39.9027 -1.6926
7.8905 15.1996 -19.9727 -184.0930 -52.2136 199.1920 0.0000 0.0000 0.0000 -19.5411 -3.9814 -54.1449 8.7743 16.6603 55.3063 1.0022 1.9033 -19.6884 0.0081 -0.5824 -1.6004 0.0000 0.0000 0.0000 11.9988 10.3193 -54.7836 -11.7231 -18.2711 65.1084 -1.9377 -7.1560 -29.6659 -0.1226 2.2568 -6.2159 3.1243 0.4149 36.7843 -0.3893 -2.5313 18.5207 -1.3369 -2.4552 2.0228 2.7153 -2.0592 2.5812 3.8197 -3.4019 -30.7833 1.3814 -3.2966 -10.2004 0.0000 -0.0000 0.0000 -63.4883 -22.7381 29.4819 47.2002 -51.8019 -23.9557 -0.0000 0.0000 -30.7048 19.1464 9.9730 3.4409 -7.1250 0.0000 -0.0000 -6.9212 40.4289 0.7843 0.0000 -0.0000 0.0000 -9.1143 39.9470 -29.1623 -86.7795 59.9608 -57.2114 0.0000 -0.0000 -58.7027 -41.9066 -7.6161 6.7831 7.1250 -0.0000 -0.0000 -13.2080 -39.8214 -1.7206
7.8980 15.2020 -19.9861 -184.1660 -52.2463 199.2500 0.0000 0.0000 0.0000 -19.5319 -3.9758 -54.1173 8.7607 16.6512 55.2587 0.9969 1.8856 -19.6304 0.0082 -0.5832 -1.6025 0.0000 0.0000 0.0000 12.0194 10.3237 -54.7514 -11.7198 -18.2697 65.0979 -1.9525 -7.1243 -29.7422 -0.1145 2.1819 -6.0086 3.1131 0.3737 36.7797 -0.3616 -2.5807 18.5085 -1.2869 -2.4814 2.0106 2.6261 -2.0187 2.5637 3.8256 -3.3704 -30.9235 1.4019 -3.2852 -10.2477 -0.0000 -0.0000 0.0000 -63.5207 -22.7147 29.3523 47.2035 -51.8034 -23.9582 -0.0000 0.0000 -30.7373 19.2348 9.9742 3.4584 -7.1250 0.0000 -0.0000 -6.8444 40.4378 0.7740 -0.0000 -0.0000 0.0000 -9.2704 39.9434 -28.9405 -87.1526 59.9693 -57.5343 0.0000 -0.0000 -58.7861 -41.9406 -7.5436 6.7275 7.1250 -0.0000 -0.0000 -13.2273 -39.7309 -1.7533
7.9053 15.2046 -19.9994 -184.2450 -52.2788 199.3180 0.0000 0.0000 0.0000 -19.5315 -3.9685 -54.0926 8.7459 16.6414 55.2073 0.9912 1.8724 -19.5710 0.0084 -0.5926 -1.6284 0.0000 0.0000 0.0000 12.0332 10.3243 -54.7258 -11.7165 -18.2682 65.0875 -1.9666 -7.0863 -29.8098 -0.1068 2.1075 -5.8029 3.0979 0.3349 36.7651 -0.3351 -2.6291 18.4997 -1.2369 -2.5072 2.0053 2.5448 -1.9835 2.5381 3.8286 -3.3457 -31.0446 1.4197 -3.2763 -10.2865 0.0000 -0.0000 0.0000 -63.5474 -22.7019 29.2246 47.2032 -51.8033 -23.9580 -0.0000 0.0000 -30.7814 19.2929 9.9762 3.4704 -7.1250 0.0000 -0.0000 -6.7941 40.4451 0.7671 0.0000 -0.0000 0.0000 -9.4289 39.9337 -28.7190 -87.5280 59.9769 -57.8593 0.0000 -0.0000 -58.8345 -41.9906 -7.4518 6.6584 7.1250 -0.0000 -0.0000 -13.2578 -39.6172 -1.7955
7.9123 15.2074 -20.0124 -184.3300 -52.3096 199.3940 0.0000 0.0000 0.0000 -19.5406 -3.9592 -54.0689 8.7298 16.6307 55.1511 0.9854 1.8633 -19.5119 0.0087 -0.6015 -1.6528 0.0000 0.0000 0.0000 12.0407 10.3196 -54.7070 -11.7132 -18.2668 65.0767 -1.9786 -7.0515 -29.8656 -0.1002 2.0416 -5.6206 3.0883 0.2987 36.7435 -0.3158 -2.6736 18.4963 -1.1990 -2.5303 2.0080 2.4875 -1.9544 2.4953 3.8248 -3.3287 -31.1475 1.4306 -3.2721 -10.3161 -0.0000 -0.0000 0.0000 -63.5547 -22.7096 29.1098 47.1991 -51.8014 -23.9548 -0.0000 0.0000 -30.8394 19.3376 9.9841 3.4818 -7.1250 0.0000 -0.0000 -6.7563 40.4572 0.7607 -0.0000 -0.0000 0.0000 -9.5713 39.9084 -28.5016 -87.9167 59.9836 -58.1959 0.0000 -0.0000 -58.8368 -42.0305 -7.3418 6.5706 7.1250 -0.0000 -0.0000 -13.2766 -39.4786 -1.8444
7.9190 15.2106 -20.0249 -184.4180 -52.3392 199.4690 0.0000 0.0000 0.0000 -19.5572 -3.9463 -54.0379 8.7122 16.6189 55.0892 0.9796 1.8611 -19.4555 0.0090 -0.6119 -1.6814 0.0000 0.0000 0.0000 12.0476 10.3060 -54.6865 -11.7092 -18.2650 65.0640 -1.9891 -7.0152 -29.9114 -0.0942 1.9795 -5.4489 3.0865 0.2636 36.7217 -0.3022 -2.7161 18.4982 -1.1720 -2.5516 2.0165 2.4480 -1.9268 2.4458 3.8125 -3.3137 -31.2406 1.4350 -3.2691 -10.3413 0.0000 -0.0000 0.0000 -63.5486 -22.7344 29.0061 47.1906 -51.7976 -23.9481 -0.0000 0.0000 -30.9002 19.3823 9.9809 3.4893 -7.1250 0.0000 -0.0000 -6.7169 40.4577 0.7562 0.0000 -0.0000 0.0000 -9.7034 39.8733 -28.2969 -88.3060 59.9892 -58.5330 0.0000 -0.0000 -58.7960 -42.0486 -7.2235 6.4703 7.1250 -0.0000 -0.0000 -13.2746 -39.3268 -1.8948
7.9254 15.2140 -20.0369 -184.5030 -52.3688 199.5350 0.0000 0.0000 0.0000 -19.5764 -3.9312 -53.9978 8.6939 16.6067 55.0254 0.9743 1.8607 -19.4054 0.0092 -0.6195 -1.7023 0.0000 0.0000 0.0000 12.0574 10.2824 -54.6613 -11.7046 -18.2630 65.0494 -1.9987 -6.9765 -29.9499 -0.0885 1.9186 -5.2808 3.0915 0.2283 36.7041 -0.2913 -2.7584 18.5045 -1.1516 -2.5726 2.0285 2.4169 -1.8970 2.3946 3.7951 -3.2951 -31.3280 1.4355 -3.2644 -10.3644 -0.0000 -0.0000 0.0000 -63.5339 -22.7721 28.9123 47.1798 -51.7928 -23.9397 -0.0000 0.0000 -30.9659 19.4275 9.9579 3.4901 -7.1250 0.0000 -0.0000 -6.6737 40.4374 0.7546 -0.0000 -0.0000 0.0000 -9.8294 39.8392 -28.1141 -88.6920 59.9935 -58.8672 0.0000 -0.0000 -58.7310 -42.0563 -7.1294 6.3888 7.1250 -0.0000 -0.0000 -13.2671 -39.2052 -1.9342
